HIERARCHY
ROOT root
{
	OFFSET	0	13.1	24.9
	CHANNELS 6  Xposition Yposition Zposition Xrotation Yrotation Zrotation
	JOINT spine_1
	{
		OFFSET	0	9.99999	0
		CHANNELS 3  Xrotation Yrotation Zrotation
		JOINT spine_2
		{
			OFFSET	0	112	-10
			CHANNELS 3  Xrotation Yrotation Zrotation
			JOINT spine_3
			{
				OFFSET	0	206.5	19.3
				CHANNELS 3  Xrotation Yrotation Zrotation
				JOINT spine_4
				{
					OFFSET	0	110.4	14.6
					CHANNELS 3  Xrotation Yrotation Zrotation
					JOINT neck_1
					{
						OFFSET	0	71.8	-50.3
						CHANNELS 3  Xrotation Yrotation Zrotation
						JOINT neck_2
						{
							OFFSET	0	86.2	-25.8
							CHANNELS 3  Xrotation Yrotation Zrotation
							JOINT head_ee
							{
								OFFSET	0	179.8	-8.7
								CHANNELS 3  Xrotation Yrotation Zrotation
								End Site
								{
									OFFSET	1	0	0
								}
							}
						}
					}
					JOINT left_clavicle
					{
						OFFSET	-43.2	22.4	-70.8
						CHANNELS 3  Xrotation Yrotation Zrotation
						JOINT left_shoulder
						{
							OFFSET	-93.9	-5.79999	48.7
							CHANNELS 3  Xrotation Yrotation Zrotation
							JOINT left_elbow
							{
								OFFSET	-291.4	-30.8	15.2
								CHANNELS 3  Xrotation Yrotation Zrotation
								JOINT left_lowarm_twist
								{
									OFFSET	-110.7	-3.89999	13.6
									CHANNELS 3  Xrotation Yrotation Zrotation
									JOINT left_hand
									{
										OFFSET	-110.7	-3.89999	13.6
										CHANNELS 3  Xrotation Yrotation Zrotation
										JOINT left_ee
										{
											OFFSET	-80.8	-5.10001	12.1
											CHANNELS 3  Xrotation Yrotation Zrotation
											End Site
											{
												OFFSET	1	0	0
											}
										}
									}
								}
							}
						}
					}
					JOINT right_clavicle
					{
						OFFSET	43.2	22.4	-70.8
						CHANNELS 3  Xrotation Yrotation Zrotation
						JOINT right_shoulder
						{
							OFFSET	93.9	-5.79999	48.7
							CHANNELS 3  Xrotation Yrotation Zrotation
							JOINT right_elbow
							{
								OFFSET	291.4	-30.8	15.2
								CHANNELS 3  Xrotation Yrotation Zrotation
								JOINT right_lowarm_twist
								{
									OFFSET	110.7	-3.89999	13.6
									CHANNELS 3  Xrotation Yrotation Zrotation
									JOINT right_hand
									{
										OFFSET	110.7	-3.89999	13.6
										CHANNELS 3  Xrotation Yrotation Zrotation
										JOINT right_ee
										{
											OFFSET	80.8	-5.10001	12.1
											CHANNELS 3  Xrotation Yrotation Zrotation
											End Site
											{
												OFFSET	1	0	0
											}
										}
									}
								}
							}
						}
					}
				}
			}
		}
	}
	JOINT left_hip
	{
		OFFSET	-82.8	-127.5	0.300001
		CHANNELS 3  Xrotation Yrotation Zrotation
		JOINT left_knee
		{
			OFFSET	-28.2	-396.7	2.2
			CHANNELS 3  Xrotation Yrotation Zrotation
			JOINT left_ankle
			{
				OFFSET	-11.7	-411.3	35.4
				CHANNELS 3  Xrotation Yrotation Zrotation
				JOINT left_toes
				{
					OFFSET	0	-60	-88.6
					CHANNELS 3  Xrotation Yrotation Zrotation
					JOINT left_foot_ee
					{
						OFFSET	-22.5	-16.5	-42.2
						CHANNELS 3  Xrotation Yrotation Zrotation
						End Site
						{
							OFFSET	1	0	0
						}
					}
				}
			}
		}
	}
	JOINT right_hip
	{
		OFFSET	82.8	-127.5	0.300001
		CHANNELS 3  Xrotation Yrotation Zrotation
		JOINT right_knee
		{
			OFFSET	28.2	-396.7	2.2
			CHANNELS 3  Xrotation Yrotation Zrotation
			JOINT right_ankle
			{
				OFFSET	11.7	-411.3	35.4
				CHANNELS 3  Xrotation Yrotation Zrotation
				JOINT right_toes
				{
					OFFSET	0	-60	-88.6
					CHANNELS 3  Xrotation Yrotation Zrotation
					JOINT right_foot_ee
					{
						OFFSET	22.5	-16.5	-42.2
						CHANNELS 3  Xrotation Yrotation Zrotation
						End Site
						{
							OFFSET	1	0	0
						}
					}
				}
			}
		}
	}
}
MOTION
Frames: 9
Frame Time: 0.02
391.555 721.904 -1204.45 174.830203773 -28.7843472993 -178.886149223 -1.85205 0.000650869 -1.64711 -1.85055 0.105445 -1.64374 -1.85236 0.499698 -1.56951 -1.85571 0.245587 -1.62871 -11.0595 8.72297 7.63456 -10.9556 11.4628 9.67677 -0.0 0.0 -0.0 10.2436 -8.12074 20.3767 4.0596 15.6683 69.5488 0.28758 -8.1079 0.0203818 4.47259 0.135973 -0.554968 1.42063 -8.72177 5.89826 -0.0 0.0 -0.0 12.9333 28.0476 -25.2674 -13.3435 -13.3369 -59.6731 1.13537 29.3537 -0.297378 3.04 -0.0971466 0.376093 -0.569535 20.2832 12.4525 0.0 0.0 0.0 -4.26712 6.00801 7.96644 -7.43559 0.233971 1.11636 15.825 22.7119 -2.28036 0.0331667 -0.0 -0.0 -0.0 0.0 -0.0 0.375409 9.17847 1.18881 -7.05983 -0.22564 -1.0593 7.63285 -4.20691 1.09596 -7.7504 0.0 0.0 0.0 0.0 0.0 
396.916010308 721.768 -1210.6207884 174.815104097 -27.7715836469 -178.770720666 -1.90325 -0.0077886 -1.93677 -1.90117 0.115445 -1.93334 -1.90335 0.581118 -1.84758 -1.908 0.282091 -1.91614 -11.1505 8.25355 7.72625 -11.0345 10.5287 9.6477 -0.0 0.0 -0.0 10.6324 -9.94116 21.2237 5.25994 15.425 71.0358 0.288103 -8.12245 0.0204556 4.96402 0.14826 -0.616541 1.66131 -8.68017 7.55207 -0.0 0.0 -0.0 12.8743 28.2029 -25.1111 -13.6211 -12.7499 -58.8075 1.04197 27.3003 -0.25305 3.41634 -0.107779 0.422989 -0.183049 20.3197 9.86693 0.0 0.0 0.0 -4.12151 6.33845 7.79073 -7.43281 0.233911 1.11594 15.3513 24.8251 -2.23991 -0.38453 0.0 0.0 -0.0 0.0 -0.0 0.378182 9.28909 2.3836 -6.76222 -0.218776 -1.01414 7.69323 -4.44698 1.10411 -7.49784 0.0 0.0 0.0 0.0 0.0 
406.561626845 717.339 -1191.05034957 174.108307428 -26.8958211968 -177.735887311 -1.71076 0.10332 -2.11927 -1.70829 0.237935 -2.10841 -1.7153 0.736005 -1.9901 -1.72059 0.412542 -2.08131 -15.3933 7.86964 7.47632 -15.3338 10.6827 9.68566 -0.0 0.0 -0.0 11.1903 -12.0005 22.4403 1.39411 14.5272 64.8605 0.353891 -9.94352 0.0307858 5.27286 0.155711 -0.655289 3.51585 -4.88697 22.1738 -0.0 0.0 -0.0 12.677 27.2367 -24.7833 -15.3005 -5.72023 -56.4252 0.793353 21.4549 -0.150302 2.83817 -0.0913171 0.350971 1.51501 19.1815 -1.91703 0.0 0.0 0.0 -6.97243 -13.6811 5.63448 -4.04396 0.14525 0.603499 22.5229 27.4572 -3.24439 -0.287929 0.0 0.0 -0.0 0.0 -0.0 1.46882 2.02854 0.607312 -13.8145 -0.318035 -2.09104 8.26488 -7.95876 1.18165 -2.0162 0.0 0.0 0.0 0.0 0.0 
406.222699424 717.339 -1190.68017521 174.180023565 -25.4738732729 -177.573377251 -1.71076 0.10332 -2.11927 -1.70829 0.237935 -2.10841 -1.7153 0.736005 -1.9901 -1.72059 0.412542 -2.08131 -15.3933 7.86964 7.47632 -15.3338 10.6827 9.68566 -0.0 0.0 -0.0 11.1903 -12.0005 22.4403 1.39411 14.5272 64.8605 0.353891 -9.94352 0.0307858 5.27286 0.155711 -0.655289 3.51585 -4.88697 22.1738 -0.0 0.0 -0.0 12.677 27.2367 -24.7833 -15.3005 -5.72023 -56.4252 0.793353 21.4549 -0.150302 2.83817 -0.0913171 0.350971 1.51501 19.1815 -1.91703 0.0 0.0 0.0 -6.97243 -13.6811 5.63448 -4.04396 0.14525 0.603499 22.5229 27.4572 -3.24439 -0.287929 0.0 0.0 -0.0 0.0 -0.0 1.46882 2.02854 0.607312 -13.8145 -0.318035 -2.09104 8.26488 -7.95876 1.18165 -2.0162 0.0 0.0 0.0 0.0 0.0 
406.080188924 717.339 -1190.52992932 174.208072786 -24.8871398623 -177.507453082 -1.71076 0.10332 -2.11927 -1.70829 0.237935 -2.10841 -1.7153 0.736005 -1.9901 -1.72059 0.412542 -2.08131 -15.3933 7.86964 7.47632 -15.3338 10.6827 9.68566 -0.0 0.0 -0.0 11.1903 -12.0005 22.4403 1.39411 14.5272 64.8605 0.353891 -9.94352 0.0307858 5.27286 0.155711 -0.655289 3.51585 -4.88697 22.1738 -0.0 0.0 -0.0 12.677 27.2367 -24.7833 -15.3005 -5.72023 -56.4252 0.793353 21.4549 -0.150302 2.83817 -0.0913171 0.350971 1.51501 19.1815 -1.91703 0.0 0.0 0.0 -6.97243 -13.6811 5.63448 -4.04396 0.14525 0.603499 22.5229 27.4572 -3.24439 -0.287929 0.0 0.0 -0.0 0.0 -0.0 1.46882 2.02854 0.607312 -13.8145 -0.318035 -2.09104 8.26488 -7.95876 1.18165 -2.0162 0.0 0.0 0.0 0.0 0.0 
406.40036856 717.339 -1190.87191054 174.14334342 -26.2144597815 -177.657518734 -1.71076 0.10332 -2.11927 -1.70829 0.237935 -2.10841 -1.7153 0.736005 -1.9901 -1.72059 0.412542 -2.08131 -15.3933 7.86964 7.47632 -15.3338 10.6827 9.68566 -0.0 0.0 -0.0 11.1903 -12.0005 22.4403 1.39411 14.5272 64.8605 0.353891 -9.94352 0.0307858 5.27286 0.155711 -0.655289 3.51585 -4.88697 22.1738 -0.0 0.0 -0.0 12.677 27.2367 -24.7833 -15.3005 -5.72023 -56.4252 0.793353 21.4549 -0.150302 2.83817 -0.0913171 0.350971 1.51501 19.1815 -1.91703 0.0 0.0 0.0 -6.97243 -13.6811 5.63448 -4.04396 0.14525 0.603499 22.5229 27.4572 -3.24439 -0.287929 0.0 0.0 -0.0 0.0 -0.0 1.46882 2.02854 0.607312 -13.8145 -0.318035 -2.09104 8.26488 -7.95876 1.18165 -2.0162 0.0 0.0 0.0 0.0 0.0 
406.453910639 717.339 -1190.93068261 174.131899899 -26.4396981053 -177.683321736 -1.71076 0.10332 -2.11927 -1.70829 0.237935 -2.10841 -1.7153 0.736005 -1.9901 -1.72059 0.412542 -2.08131 -15.3933 7.86964 7.47632 -15.3338 10.6827 9.68566 -0.0 0.0 -0.0 11.1903 -12.0005 22.4403 1.39411 14.5272 64.8605 0.353891 -9.94352 0.0307858 5.27286 0.155711 -0.655289 3.51585 -4.88697 22.1738 -0.0 0.0 -0.0 12.677 27.2367 -24.7833 -15.3005 -5.72023 -56.4252 0.793353 21.4549 -0.150302 2.83817 -0.0913171 0.350971 1.51501 19.1815 -1.91703 0.0 0.0 0.0 -6.97243 -13.6811 5.63448 -4.04396 0.14525 0.603499 22.5229 27.4572 -3.24439 -0.287929 0.0 0.0 -0.0 0.0 -0.0 1.46882 2.02854 0.607312 -13.8145 -0.318035 -2.09104 8.26488 -7.95876 1.18165 -2.0162 0.0 0.0 0.0 0.0 0.0 
406.781770128 717.339 -1191.30104748 174.057600958 -27.8409403496 -177.846184583 -1.71076 0.10332 -2.11927 -1.70829 0.237935 -2.10841 -1.7153 0.736005 -1.9901 -1.72059 0.412542 -2.08131 -15.3933 7.86964 7.47632 -15.3338 10.6827 9.68566 -0.0 0.0 -0.0 11.1903 -12.0005 22.4403 1.39411 14.5272 64.8605 0.353891 -9.94352 0.0307858 5.27286 0.155711 -0.655289 3.51585 -4.88697 22.1738 -0.0 0.0 -0.0 12.677 27.2367 -24.7833 -15.3005 -5.72023 -56.4252 0.793353 21.4549 -0.150302 2.83817 -0.0913171 0.350971 1.51501 19.1815 -1.91703 0.0 0.0 0.0 -6.97243 -13.6811 5.63448 -4.04396 0.14525 0.603499 22.5229 27.4572 -3.24439 -0.287929 0.0 0.0 -0.0 0.0 -0.0 1.46882 2.02854 0.607312 -13.8145 -0.318035 -2.09104 8.26488 -7.95876 1.18165 -2.0162 0.0 0.0 0.0 0.0 0.0 
407.07132738 717.339 -1191.64402227 173.985375329 -29.1123365544 -177.997654992 -1.71076 0.10332 -2.11927 -1.70829 0.237935 -2.10841 -1.7153 0.736005 -1.9901 -1.72059 0.412542 -2.08131 -15.3933 7.86964 7.47632 -15.3338 10.6827 9.68566 -0.0 0.0 -0.0 11.1903 -12.0005 22.4403 1.39411 14.5272 64.8605 0.353891 -9.94352 0.0307858 5.27286 0.155711 -0.655289 3.51585 -4.88697 22.1738 -0.0 0.0 -0.0 12.677 27.2367 -24.7833 -15.3005 -5.72023 -56.4252 0.793353 21.4549 -0.150302 2.83817 -0.0913171 0.350971 1.51501 19.1815 -1.91703 0.0 0.0 0.0 -6.97243 -13.6811 5.63448 -4.04396 0.14525 0.603499 22.5229 27.4572 -3.24439 -0.287929 0.0 0.0 -0.0 0.0 -0.0 1.46882 2.02854 0.607312 -13.8145 -0.318035 -2.09104 8.26488 -7.95876 1.18165 -2.0162 0.0 0.0 0.0 0.0 0.0 
